<svg width="124" height="124" viewBox="0 0 124 124" fill="none" xmlns="http://www.w3.org/2000/svg">
<path d="M115.979 24.4706L101.738 38.7112L88.04 35.9599L85.2888 22.2618L99.5294 8.02118C95.866 7.04262 92.0189 6.97423 88.323 7.82194C84.6272 8.66966 81.1945 10.4078 78.3237 12.8851C75.453 15.3624 73.2312 18.5037 71.8517 22.0357C70.4722 25.5677 69.9769 29.3834 70.4088 33.1506C70.5182 34.3177 70.3643 35.4946 69.9586 36.5944C69.5529 37.6942 68.9056 38.6891 68.0644 39.5056L44.5625 63.0074L39.5056 68.0643C38.6891 68.9055 37.6943 69.5528 36.5945 69.9585C35.4946 70.3642 34.3178 70.5181 33.1506 70.4087C29.3835 69.9768 25.5678 70.4722 22.0358 71.8516C18.5038 73.2311 15.3624 75.4529 12.8851 78.3237C10.4079 81.1944 8.66973 84.6271 7.82201 88.323C6.9743 92.0188 7.04269 95.8659 8.02125 99.5293L22.2619 85.2887L35.96 88.0399L38.7113 101.738L24.4706 115.979C28.134 116.957 31.9811 117.026 35.677 116.178C39.3728 115.33 42.8055 113.592 45.6763 111.115C48.547 108.637 50.7688 105.496 52.1483 101.964C53.5278 98.4321 54.0231 94.6165 53.5913 90.8493C53.4819 89.6821 53.6357 88.5053 54.0414 87.4054C54.4472 86.3056 55.0944 85.3108 55.9356 84.4943L84.4944 55.9356C85.3109 55.0944 86.3057 54.4471 87.4055 54.0413C88.5054 53.6356 89.6822 53.4818 90.8494 53.5912C94.6165 54.0231 98.4322 53.5277 101.964 52.1482C105.496 50.7687 108.638 48.5469 111.115 45.6762C113.592 42.8055 115.33 39.3728 116.178 35.6769C117.026 31.981 116.957 28.134 115.979 24.4706Z" fill="#FFCD00"/>
<path d="M17.9219 79.0112C20.3972 76.5312 23.4015 74.6434 26.7099 73.4892C30.0182 72.335 33.5448 71.9442 37.0256 72.3462C38.1928 72.4556 39.3696 72.3017 40.4695 71.896C41.5693 71.4903 42.5641 70.843 43.3806 70.0018L48.4375 64.9449L71.9394 41.4431C72.7806 40.6266 73.4279 39.6317 73.8336 38.5319C74.2393 37.4321 74.3932 36.2552 74.2838 35.0881C73.8978 31.7537 74.2395 28.3752 75.2853 25.1857C76.3312 21.9961 78.0562 19.0712 80.3416 16.6128C82.627 14.1543 85.4183 12.2206 88.5232 10.9451C91.628 9.66954 94.9725 9.08249 98.3262 9.22437L99.5294 8.02118C95.866 7.04262 92.0189 6.97423 88.3231 7.82194C84.6272 8.66966 81.1945 10.4078 78.3237 12.8851C75.453 15.3624 73.2312 18.5037 71.8517 22.0357C70.4722 25.5677 69.9769 29.3834 70.4088 33.1506C70.5182 34.3177 70.3643 35.4946 69.9586 36.5944C69.5529 37.6942 68.9056 38.6891 68.0644 39.5056L44.5625 63.0074L39.5056 68.0643C38.6891 68.9055 37.6943 69.5528 36.5945 69.9585C35.4946 70.3642 34.3178 70.5181 33.1506 70.4087C29.3835 69.9768 25.5678 70.4722 22.0358 71.8516C18.5038 73.2311 15.3624 75.4529 12.8851 78.3237C10.4079 81.1944 8.66973 84.6271 7.82201 88.323C6.9743 92.0188 7.04269 95.8659 8.02125 99.5293L11.1619 96.3886C11.0202 93.1814 11.5481 89.9799 12.7119 86.988C13.8758 83.9961 15.6501 81.2795 17.9219 79.0112Z" fill="#DDB200"/>
<path d="M106.756 115.211L118.032 118.032L115.211 106.756C113.167 107.264 111.299 108.319 109.809 109.809C108.319 111.299 107.264 113.167 106.756 115.211Z" fill="#414042"/>
<path d="M29.0257 34.5049L23.5406 39.9899L45.57 61.9999L62 78.4299L96.1135 112.544V101.593L29.0257 34.5049Z" fill="#D80027"/>
<path d="M112.544 96.1136L78.43 62L62 45.57L39.99 23.5406L34.5049 29.0257L101.593 96.1136H112.544Z" fill="#F7941D"/>
<path d="M96.1136 101.593L102.963 102.963L101.593 96.1135L34.5049 29.0256L29.0257 34.5049L96.1136 101.593Z" fill="#F15A29"/>
<path d="M102.963 102.963L96.1136 101.593V112.544L106.756 115.212C107.264 113.167 108.319 111.299 109.809 109.809C111.299 108.319 113.167 107.264 115.212 106.756L112.549 96.1194H101.593L102.963 102.963Z" fill="#808285"/>
<path d="M29.0149 34.5016L34.4949 29.0215L34.4977 29.0243L29.0176 34.5043L29.0149 34.5016Z" fill="#D1E7F8"/>
<path d="M39.9822 23.5426L31.7614 15.3218L15.3217 31.7615L23.5426 39.9823L29.0218 34.503L34.503 29.0218L39.9822 23.5426Z" fill="#005ECE"/>
<path d="M26.2822 9.84249C24.0961 7.6917 21.1487 6.49188 18.0819 6.50437C15.0152 6.51686 12.0777 7.74064 9.90917 9.90916C7.74065 12.0777 6.51687 15.0152 6.50438 18.0819C6.49189 21.1487 7.69172 24.0961 9.8425 26.2822L15.3217 31.7614L31.7614 15.3217L26.2822 9.84249Z" fill="#D1D3D4"/>
<path d="M119.912 117.562L114.429 95.6486C114.346 95.3068 114.172 94.9941 113.925 94.7438L81.1696 62L85.8642 57.3054C86.4745 56.6707 87.2192 56.1806 88.0436 55.8712C88.868 55.5617 89.7512 55.4408 90.6285 55.5171C94.7097 55.9851 98.8434 55.4485 102.67 53.954C106.496 52.4595 109.899 50.0524 112.583 46.9423C115.267 43.8321 117.149 40.1132 118.067 36.1092C118.985 32.1052 118.911 27.9375 117.85 23.9688C117.762 23.6404 117.589 23.3409 117.349 23.1005C117.108 22.86 116.809 22.6872 116.48 22.5992C116.152 22.5112 115.806 22.5113 115.477 22.5993C115.149 22.6874 114.849 22.8603 114.609 23.1008L101.103 36.6071L89.6869 34.3131L87.3909 22.8974L100.899 9.39106C101.14 9.15061 101.313 8.8511 101.401 8.52263C101.489 8.19416 101.489 7.8483 101.401 7.51981C101.313 7.19131 101.14 6.89176 100.9 6.65124C100.659 6.41073 100.36 6.23773 100.031 6.14963C96.0625 5.08933 91.8948 5.01511 87.8909 5.93344C83.887 6.85176 80.1682 8.73478 77.0582 11.4186C73.9483 14.1024 71.5414 17.5057 70.0472 21.3322C68.5529 25.1586 68.0166 29.2923 68.4848 33.3734C68.5604 34.2505 68.4388 35.1334 68.129 35.9574C67.8193 36.7814 67.3292 37.5257 66.6946 38.1358L62 42.8304L27.652 8.47269C26.3925 7.21323 24.8973 6.21417 23.2518 5.53256C21.6062 4.85094 19.8425 4.50012 18.0614 4.50012C16.2802 4.50012 14.5165 4.85094 12.871 5.53256C11.2254 6.21417 9.73021 7.21323 8.47075 8.47269C7.21129 9.73215 6.21223 11.2273 5.53062 12.8729C4.84901 14.5185 4.49818 16.2822 4.49818 18.0633C4.49818 19.8445 4.84901 21.6082 5.53062 23.2537C6.21223 24.8993 7.21129 26.3945 8.47075 27.6539L42.8284 62L38.1358 66.6926C37.5268 67.3292 36.7823 67.8205 35.9576 68.13C35.1328 68.4396 34.2489 68.5596 33.3715 68.4809C29.2901 68.0128 25.1562 68.5494 21.3296 70.044C17.503 71.5386 14.0997 73.9459 11.416 77.0563C8.73233 80.1667 6.8496 83.8859 5.93172 87.8902C5.01385 91.8945 5.08865 96.0624 6.14963 100.031C6.23773 100.36 6.41073 100.659 6.65124 100.9C6.89176 101.14 7.19131 101.313 7.51981 101.401C7.8483 101.489 8.19416 101.489 8.52263 101.401C8.8511 101.313 9.15061 101.14 9.39106 100.899L22.8974 87.3929L34.3131 89.6869L36.6188 101.103L23.1105 114.609C22.87 114.849 22.6971 115.149 22.609 115.477C22.521 115.806 22.5209 116.152 22.6089 116.48C22.6969 116.809 22.8697 117.108 23.1101 117.349C23.3506 117.589 23.65 117.762 23.9785 117.85C27.9466 118.909 32.1131 118.982 36.1157 118.062C40.1183 117.143 43.8356 115.26 46.9444 112.576C50.0531 109.893 52.459 106.49 53.9527 102.665C55.4465 98.8392 55.9829 94.7066 55.5152 90.6266C55.4396 89.7495 55.5612 88.8666 55.871 88.0426C56.1807 87.2186 56.6708 86.4743 57.3054 85.8642L62 81.1696L94.7437 113.925C94.9918 114.173 95.3025 114.349 95.6427 114.435L117.556 119.918C117.71 119.956 117.868 119.976 118.027 119.976C118.321 119.976 118.612 119.909 118.876 119.779C119.141 119.65 119.373 119.462 119.554 119.23C119.735 118.998 119.861 118.728 119.922 118.44C119.983 118.151 119.978 117.853 119.906 117.568L119.912 117.562ZM105.495 112.898L98.0491 111.034V103.957L102.583 104.863C102.896 104.926 103.219 104.91 103.525 104.818C103.83 104.726 104.108 104.559 104.334 104.334C104.559 104.108 104.726 103.83 104.818 103.525C104.91 103.219 104.926 102.896 104.863 102.583L103.955 98.0491H111.034L112.896 105.493C111.229 106.168 109.715 107.172 108.444 108.444C107.172 109.716 106.169 111.231 105.495 112.898ZM99.8064 97.0687L100.492 100.494L97.0687 99.8084L31.775 34.5146L34.5049 31.775L99.8064 97.0687ZM69.4342 40.8813C70.4812 39.8583 71.2858 38.6138 71.7887 37.2392C72.2916 35.8645 72.4802 34.3946 72.3404 32.9375C71.9781 29.7815 72.3251 26.5844 73.3562 23.5796C74.3873 20.5748 76.0764 17.8382 78.3002 15.5697C80.524 13.3011 83.2264 11.5578 86.2101 10.4671C89.1937 9.37634 92.3833 8.96569 95.5459 9.26513L83.9209 20.8901C83.6949 21.1161 83.5284 21.3945 83.4361 21.7004C83.3438 22.0063 83.3287 22.3303 83.3919 22.6436L86.1451 36.3398C86.2201 36.7143 86.4041 37.0583 86.674 37.3286C86.9439 37.5988 87.2877 37.7833 87.6622 37.8588L101.358 40.6081C101.672 40.6713 101.996 40.6561 102.302 40.5639C102.607 40.4716 102.886 40.305 103.112 40.0791L114.737 28.4541C115.037 31.6166 114.628 34.8063 113.538 37.7903C112.448 40.7743 110.706 43.4772 108.438 45.7018C106.17 47.9264 103.434 49.6164 100.43 50.6485C97.4253 51.6805 94.2283 52.0286 91.0722 51.6673C89.6151 51.5281 88.1454 51.7169 86.7708 52.2198C85.3962 52.7227 84.1517 53.527 83.1284 54.5736L78.43 59.2604L72.9333 53.7637C72.9721 53.7308 73.0205 53.7191 73.0573 53.6823L80.8073 45.9323C81.1602 45.5669 81.3555 45.0775 81.3511 44.5695C81.3467 44.0615 81.1429 43.5755 80.7837 43.2163C80.4245 42.8571 79.9385 42.6533 79.4305 42.6489C78.9225 42.6445 78.4331 42.8398 78.0677 43.1927L70.3177 50.9427C70.2809 50.9795 70.2692 51.0279 70.2363 51.0667L64.7396 45.57L69.4342 40.8813ZM39.9842 26.2861L107.864 94.1741H102.395L37.2446 29.0257L39.9842 26.2861ZM11.2123 24.9124C10.3063 24.0142 9.58656 22.946 9.09449 21.769C8.60241 20.5919 8.34766 19.3293 8.34487 18.0536C8.34207 16.7778 8.59129 15.5141 9.07821 14.3349C9.56513 13.1557 10.2802 12.0843 11.1822 11.1822C12.0843 10.2802 13.1557 9.56513 14.3349 9.07821C15.5141 8.59129 16.7778 8.34208 18.0536 8.34487C19.3293 8.34766 20.5919 8.60241 21.769 9.09449C22.946 9.58657 24.0142 10.3063 24.9124 11.2123L29.0218 15.3218L15.3218 29.0218L11.2123 24.9124ZM18.0614 31.7634L31.7634 18.0614L37.2426 23.5426L23.5406 37.2426L18.0614 31.7634ZM54.5658 83.1188C53.5188 84.1417 52.7142 85.3862 52.2113 86.7608C51.7084 88.1355 51.5198 89.6054 51.6596 91.0625C52.0219 94.2185 51.6749 97.4156 50.6438 100.42C49.6127 103.425 47.9236 106.162 45.6998 108.43C43.476 110.699 40.7736 112.442 37.7899 113.533C34.8063 114.624 31.6167 115.034 28.4541 114.735L40.0791 103.11C40.3054 102.884 40.4723 102.606 40.5649 102.3C40.6575 101.994 40.673 101.67 40.61 101.356L37.8587 87.6583C37.7838 87.2838 37.5998 86.9398 37.3298 86.6695C37.0599 86.3992 36.7161 86.2148 36.3417 86.1393L22.6436 83.39C22.3318 83.3284 22.0097 83.3444 21.7056 83.4367C21.4015 83.5289 21.1248 83.6945 20.8998 83.9189L9.27481 95.5439C8.97471 92.3818 9.3845 89.1925 10.4743 86.2089C11.5641 83.2253 13.3063 80.5228 15.5739 78.2984C17.8414 76.0741 20.5771 74.3843 23.5811 73.3521C26.5851 72.32 29.7817 71.9717 32.9375 72.3327C34.3947 72.4738 35.865 72.2859 37.2399 71.7829C38.6148 71.2799 39.8592 70.4746 40.8813 69.4264L45.5758 64.7319L51.0706 70.2286C51.0337 70.2615 50.9853 70.2731 50.9485 70.3099L43.1985 78.0599C43.0134 78.2387 42.8658 78.4525 42.7643 78.6888C42.6628 78.9252 42.6093 79.1795 42.6071 79.4367C42.6048 79.694 42.6539 79.9491 42.7513 80.1872C42.8487 80.4253 42.9926 80.6417 43.1745 80.8236C43.3564 81.0055 43.5727 81.1494 43.8108 81.2468C44.0489 81.3442 44.3041 81.3932 44.5613 81.391C44.8186 81.3887 45.0728 81.3353 45.3092 81.2338C45.5456 81.1322 45.7594 80.9846 45.9381 80.7996L53.6881 73.0496C53.7249 73.0127 53.7366 72.9643 53.7695 72.9275L59.2662 78.4223L54.5658 83.1188ZM26.2803 39.99L29.0257 37.2446L94.1741 102.395V107.865L26.2803 39.99ZM109.321 113.855C110.245 111.852 111.852 110.245 113.855 109.322L115.368 115.368L109.321 113.855Z" fill="black"/>
</svg>
