<svg width="124" height="124" viewBox="0 0 124 124" fill="none" xmlns="http://www.w3.org/2000/svg">
<path d="M94.4363 13.4816C70.618 13.9259 54.0261 1.891 42.5492 2.108C31.0723 2.325 7.08522 9.37233 8.07377 62.1791C9.06233 114.986 41.6364 122.126 54.2638 121.892C113.381 120.786 136.624 12.6928 94.4363 13.4816Z" fill="#EFEFEF"/>
<path d="M93.1597 23.7887L95.5953 21.3531L100.466 26.2243L98.0309 28.6599L93.1597 23.7887Z" fill="#A4AFC1"/>
<path d="M107.173 37.811L109.608 35.3754L114.48 40.2466L112.044 42.6822L107.173 37.811Z" fill="#A4AFC1"/>
<path d="M107.161 25.6173L112.032 20.7461L114.468 23.1817L109.596 28.0529L107.161 25.6173Z" fill="#A4AFC1"/>
<path d="M17.1189 109.361C14.2703 109.361 11.9522 107.043 11.9522 104.194C11.9522 101.346 14.2703 99.0277 17.1189 99.0277C19.9674 99.0277 22.2855 101.346 22.2855 104.194C22.2855 107.043 19.9674 109.361 17.1189 109.361ZM17.1189 102.472C16.1682 102.472 15.3967 103.244 15.3967 104.194C15.3967 105.145 16.1682 105.917 17.1189 105.917C18.0695 105.917 18.8411 105.145 18.8411 104.194C18.8411 103.244 18.0695 102.472 17.1189 102.472Z" fill="#A4AFC1"/>
<path d="M93.8611 93.8612H30.1389C26.3328 93.8612 23.25 90.7784 23.25 86.9723V47.3612C23.25 43.5551 26.3328 40.4723 30.1389 40.4723H93.8611C97.6672 40.4723 100.75 43.5551 100.75 47.3612V86.9723C100.75 90.7784 97.6672 93.8612 93.8611 93.8612Z" fill="#2FDF84"/>
<path d="M50.8055 40.4722V33.5834C50.8055 31.682 52.3487 30.1389 54.25 30.1389H69.75C71.6513 30.1389 73.1944 31.682 73.1944 33.5834V40.4722H50.8055Z" fill="#F3F3F1"/>
<path d="M93.8611 96.4445H30.1389C24.9137 96.4445 20.6667 92.1975 20.6667 86.9723V47.3611C20.6667 42.1359 24.9137 37.8889 30.1389 37.8889H93.8611C99.0863 37.8889 103.333 42.1359 103.333 47.3611V69.1989H98.1667V47.3611C98.1667 44.9879 96.2344 43.0556 93.8611 43.0556H30.1389C27.7657 43.0556 25.8334 44.9879 25.8334 47.3611V86.9723C25.8334 89.3455 27.7657 91.2778 30.1389 91.2778H93.8611C96.2344 91.2778 98.1667 89.3455 98.1667 86.9723V76.105H103.333V86.9723C103.333 92.1975 99.0863 96.4445 93.8611 96.4445Z" fill="black"/>
<path d="M75.7778 40.4722H70.6111V33.5833C70.6111 33.108 70.2253 32.7222 69.75 32.7222H54.25C53.7747 32.7222 53.3889 33.108 53.3889 33.5833V40.4722H48.2222V33.5833C48.2222 30.2594 50.9261 27.5555 54.25 27.5555H69.75C73.0739 27.5555 75.7778 30.2594 75.7778 33.5833V40.4722Z" fill="black"/>
<path d="M23.25 58.5555H100.75V63.7222H23.25V58.5555Z" fill="black"/>
<path d="M41.3333 54.25H46.5V66.8808H41.3333V54.25Z" fill="black"/>
<path d="M77.5 54.25H82.6667V66.8808H77.5V54.25Z" fill="black"/>
</svg>
