<svg width="352" height="498" viewBox="0 0 352 498" fill="none" xmlns="http://www.w3.org/2000/svg">
<g clip-path="url(#clip0)">
<path d="M77.11 397.9C111.965 397.9 140.22 391.654 140.22 383.95C140.22 376.246 111.965 370 77.11 370C42.2553 370 14 376.246 14 383.95C14 391.654 42.2553 397.9 77.11 397.9Z" fill="black"/>
<path d="M77.11 383.95L41.65 494.89" stroke="black" stroke-width="4" stroke-miterlimit="10" stroke-linecap="round"/>
<path d="M77.11 383.95L112.56 494.89" stroke="black" stroke-width="4" stroke-miterlimit="10" stroke-linecap="round"/>
<path d="M53.29 458.47L92.82 433.13" stroke="black" stroke-width="2" stroke-miterlimit="10" stroke-linecap="round"/>
<path d="M61.24 433.13L100.76 458.47" stroke="black" stroke-width="2" stroke-miterlimit="10" stroke-linecap="round"/>
</g>
<g clip-path="url(#clip1)">
<path d="M237.87 477.14C237.87 479.51 236.48 494.46 239.25 495.84C242.02 497.22 272.46 498.06 273.85 496.67C275.24 495.28 276.06 492.38 274.85 491.55C273.64 490.72 261.85 488.37 260.25 487.26C258.65 486.15 256.44 480.26 257.25 477.14" fill="#1F161E"/>
<path d="M146.83 281.71L164 275.57C163.26 244.3 155.95 174.43 145.56 164.04C143.13 161.6 94.87 157.36 86.25 157.36C34.87 157.36 19.64 163.23 15.76 167.1C3.75 179.09 0 234.71 0 254.18C0 273.65 55 283.74 55 283.74L119.47 288.18C119.47 288.18 133.62 289.63 145.85 290.35C146.11 286.6 146.83 281.71 146.83 281.71Z" fill="#78E5E1"/>
<path d="M197.9 299.84C202.59 298.45 249.23 290.84 259.38 300.84C269.53 310.84 301.53 454.21 301.53 457.51H275.78L241 382.74" fill="#1F161E"/>
<path d="M28.09 287.09C26.92 292.94 19.89 299.22 19.89 331.09C19.89 375.17 55.98 376.09 68.95 376.09C109.32 376.09 174.66 364.09 179.07 361.9C182 366.79 235.93 476.9 236.17 479.35H261C261 479.35 245.61 314.71 217.85 296C208.83 290 48.79 283.53 28.09 287.09Z" fill="#55B79D"/>
<path d="M173.49 254.87C166.96 254.87 161.59 256.42 146.83 259.32L146.05 287.56C160.05 281.92 163.31 274.08 167.37 274.08C177.51 274.08 182.81 279.31 188.8 279.31C192.98 279.31 200.49 276.03 200.49 271.57C200.49 262.23 181.56 254.87 173.49 254.87Z" fill="#F8CDBA"/>
<path d="M277.24 455.53C277.24 457.91 275.85 472.85 278.62 474.24C281.39 475.63 311.83 476.45 313.22 475.07C314.61 473.69 315.43 470.78 314.22 469.95C313.01 469.12 301.22 466.76 299.62 465.66C298.02 464.56 295.81 458.66 296.62 455.53" fill="#1F161E"/>
<path d="M95.31 164C95.31 167.78 73.43 167.89 73.43 164V133.35H95.31V164Z" fill="#F8CDBA"/>
<path d="M88.19 143.42C86.19 143.42 73.43 149.05 73.43 152.2V135.61C76.61 135.61 88.19 143.42 88.19 143.42Z" fill="#1F161E"/>
<path d="M92.41 144.77C107.046 144.77 118.91 132.906 118.91 118.27C118.91 103.634 107.046 91.77 92.41 91.77C77.7745 91.77 65.91 103.634 65.91 118.27C65.91 132.906 77.7745 144.77 92.41 144.77Z" fill="#F8CDBA"/>
<path d="M119.77 97.5C116.49 102.71 109.63 105.1 102.2 105.1C95.87 105.1 86.65 103.26 80.08 107C76.54 109 72.47 113.55 71.64 122.66C71.64 124.22 69.88 130.27 69.88 132.22C69.88 133.56 68.38 134.43 65.88 134.43C64.59 134.43 62.05 132.33 62.05 129.14C62.05 125.45 63.51 124.14 63.51 121.01C63.51 117.88 59.61 114.83 59.61 106.13C59.61 93.6 67.61 85.88 73.27 85.88C78.42 85.88 80.05 87.08 80.7 87.59C80.7 76.2 95.7 71 101.7 71C108.5 71 111.7 73.8 111.7 77.34C111.7 83.01 109.01 87.81 107.64 88.89C110.738 86.1018 114.762 84.5656 118.93 84.58C126.73 84.58 129.35 89.7 129.35 93.2C129.35 100.82 120.21 107.87 116.81 107.87C115.958 106.055 114.954 104.316 113.81 102.67" fill="#1F161E"/>
<path d="M72.47 127.42C75.5904 127.42 78.12 124.89 78.12 121.77C78.12 118.65 75.5904 116.12 72.47 116.12C69.3496 116.12 66.82 118.65 66.82 121.77C66.82 124.89 69.3496 127.42 72.47 127.42Z" fill="#F8CDBA"/>
<path d="M119.17 123.13C121.589 123.13 123.55 122.109 123.55 120.85C123.55 119.591 121.589 118.57 119.17 118.57C116.751 118.57 114.79 119.591 114.79 120.85C114.79 122.109 116.751 123.13 119.17 123.13Z" fill="#FA9E9F"/>
<path d="M91.63 123.13C94.049 123.13 96.01 122.109 96.01 120.85C96.01 119.591 94.049 118.57 91.63 118.57C89.211 118.57 87.25 119.591 87.25 120.85C87.25 122.109 89.211 123.13 91.63 123.13Z" fill="#FA9E9F"/>
<path d="M108.48 116.12C109.3 117.28 113.48 122.19 109.06 124.18" stroke="#1F161E" stroke-miterlimit="10" stroke-linecap="round"/>
<path d="M100.24 129.91C98.92 129.91 96.89 128.28 95.81 126.8" stroke="#1F161E" stroke-miterlimit="10" stroke-linecap="round"/>
<path d="M135.18 201.08C137.18 205.34 146.83 246.33 146.83 259.32" stroke="#1F161E" stroke-miterlimit="10" stroke-linecap="round"/>
<path d="M0 250.87C0 296.96 0.42 310.33 18.93 310.33C61.57 310.33 126.03 275.33 137.52 275.33C147.66 275.33 152.96 280.56 158.96 280.56C163.13 280.56 170.65 277.27 170.65 272.82C170.65 263.48 151.72 256.12 143.65 256.12C125.49 256.12 52.97 273.63 51.21 273.63C49.45 273.63 46.46 272.86 46.46 269.88C46.46 264.47 49.99 251.98 50.46 250.88L0 250.87Z" fill="#F8CDBA"/>
<path d="M61.1 210.67C59.88 214.18 50.37 250.46 49.26 254.87" stroke="#1F161E" stroke-miterlimit="10" stroke-linecap="round"/>
</g>
<g clip-path="url(#clip2)">
<path d="M308.431 294H195.072L215.609 206.29C216.12 204.172 217.17 202.317 218.602 201.003C220.033 199.688 221.769 198.986 223.549 199H319.741C321.004 198.978 322.253 199.322 323.39 200.004C324.527 200.686 325.52 201.688 326.291 202.931C327.062 204.173 327.589 205.622 327.83 207.161C328.071 208.701 328.021 210.289 327.681 211.799L308.431 294Z" fill="black"/>
<path d="M265.665 255.114C269.496 255.114 272.601 251.258 272.601 246.5C272.601 241.742 269.496 237.886 265.665 237.886C261.835 237.886 258.73 241.742 258.73 246.5C258.73 251.258 261.835 255.114 265.665 255.114Z" fill="white"/>
<path d="M208.539 287.851H129V294.015H208.539V287.851Z" fill="black"/>
</g>
<g clip-path="url(#clip3)">
<path d="M350.23 63.94H204.23C203.551 63.94 203 64.4907 203 65.17V65.93C203 66.6093 203.551 67.16 204.23 67.16H350.23C350.909 67.16 351.46 66.6093 351.46 65.93V65.17C351.46 64.4907 350.909 63.94 350.23 63.94Z" fill="#D8D8D8"/>
<path d="M265.9 0H257.03C255.616 0 254.47 1.14615 254.47 2.56V61.38C254.47 62.7938 255.616 63.94 257.03 63.94H265.9C267.314 63.94 268.46 62.7938 268.46 61.38V2.56C268.46 1.14615 267.314 0 265.9 0Z" fill="#969696"/>
<path d="M273.33 14.99H270.59C269.414 14.99 268.46 15.9436 268.46 17.12V61.81C268.46 62.9864 269.414 63.94 270.59 63.94H273.33C274.506 63.94 275.46 62.9864 275.46 61.81V17.12C275.46 15.9436 274.506 14.99 273.33 14.99Z" fill="#D8D8D8"/>
<path d="M280.4 14.99H277.52C276.382 14.99 275.46 15.9123 275.46 17.05V61.88C275.46 63.0177 276.382 63.94 277.52 63.94H280.4C281.538 63.94 282.46 63.0177 282.46 61.88V17.05C282.46 15.9123 281.538 14.99 280.4 14.99Z" fill="#969696"/>
<path d="M285.482 18.5208L283.119 19.6056C282.015 20.1126 281.531 21.4187 282.038 22.5229L300.625 63.0099C301.132 64.1141 302.438 64.5983 303.543 64.0914L305.905 63.0066C307.01 62.4996 307.494 61.1935 306.987 60.0893L288.399 19.6023C287.892 18.498 286.586 18.0139 285.482 18.5208Z" fill="#D8D8D8"/>
<path d="M261.46 47.76C263.619 47.76 265.37 46.0094 265.37 43.85C265.37 41.6906 263.619 39.94 261.46 39.94C259.301 39.94 257.55 41.6906 257.55 43.85C257.55 46.0094 259.301 47.76 261.46 47.76Z" fill="#D8D8D8"/>
<path d="M265.01 50.09H257.93C257.411 50.09 256.99 50.5108 256.99 51.03C256.99 51.5491 257.411 51.97 257.93 51.97H265.01C265.529 51.97 265.95 51.5491 265.95 51.03C265.95 50.5108 265.529 50.09 265.01 50.09Z" fill="#D8D8D8"/>
<path d="M265.01 54.91H257.93C257.411 54.91 256.99 55.3309 256.99 55.85C256.99 56.3691 257.411 56.79 257.93 56.79H265.01C265.529 56.79 265.95 56.3691 265.95 55.85C265.95 55.3309 265.529 54.91 265.01 54.91Z" fill="#D8D8D8"/>
<path d="M272.69 22.38C272.69 21.9768 272.363 21.65 271.96 21.65C271.557 21.65 271.23 21.9768 271.23 22.38V56.54C271.23 56.9432 271.557 57.27 271.96 57.27C272.363 57.27 272.69 56.9432 272.69 56.54V22.38Z" fill="#969696"/>
<path d="M241.98 65.55H235.72C234.345 65.55 233.23 66.6648 233.23 68.04C233.23 69.4152 234.345 70.53 235.72 70.53H241.98C243.355 70.53 244.47 69.4152 244.47 68.04C244.47 66.6648 243.355 65.55 241.98 65.55Z" fill="#D8D8D8"/>
<path d="M318.74 65.55H312.48C311.105 65.55 309.99 66.6648 309.99 68.04C309.99 69.4152 311.105 70.53 312.48 70.53H318.74C320.115 70.53 321.23 69.4152 321.23 68.04C321.23 66.6648 320.115 65.55 318.74 65.55Z" fill="#D8D8D8"/>
</g>
<defs>
<clipPath id="clip0">
<rect width="126.21" height="126.89" fill="white" transform="translate(14 370)"/>
</clipPath>
<clipPath id="clip1">
<rect width="314.8" height="426.39" fill="white" transform="translate(0 71)"/>
</clipPath>
<clipPath id="clip2">
<rect width="199" height="95" fill="white" transform="translate(129 199)"/>
</clipPath>
<clipPath id="clip3">
<rect width="148.46" height="70.52" fill="white" transform="translate(203)"/>
</clipPath>
</defs>
</svg>
